<mxfile host="app.diagrams.net" agent="Mozilla/5.0 (Windows NT 10.0; Win64; x64) AppleWebKit/537.36 (KHTML, like Gecko) Chrome/130.0.0.0 Safari/537.36 Edg/130.0.0.0" version="24.8.4">
  <diagram name="Page-1" id="KWIpUJE7HO5hffBSLpdx">
    <mxGraphModel dx="2229" dy="1851" grid="1" gridSize="10" guides="1" tooltips="1" connect="1" arrows="1" fold="1" page="1" pageScale="1" pageWidth="850" pageHeight="1100" math="0" shadow="0">
      <root>
        <mxCell id="0" />
        <mxCell id="1" parent="0" />
        <mxCell id="HWwJgieOPMspvH0jEI9B-1" value="API" style="whiteSpace=wrap;strokeWidth=2;" vertex="1" parent="1">
          <mxGeometry x="587" y="234" width="265" height="119" as="geometry" />
        </mxCell>
        <mxCell id="HWwJgieOPMspvH0jEI9B-2" value="AIAnalysis" style="whiteSpace=wrap;strokeWidth=2;" vertex="1" parent="1">
          <mxGeometry x="1734" y="-60" width="240" height="136" as="geometry" />
        </mxCell>
        <mxCell id="HWwJgieOPMspvH0jEI9B-3" value="DataProcessing" style="whiteSpace=wrap;strokeWidth=2;" vertex="1" parent="1">
          <mxGeometry x="1113" y="96" width="1134" height="317" as="geometry" />
        </mxCell>
        <mxCell id="HWwJgieOPMspvH0jEI9B-4" value="DataIngestion" style="whiteSpace=wrap;strokeWidth=2;" vertex="1" parent="1">
          <mxGeometry x="-10" y="86" width="1073" height="128" as="geometry" />
        </mxCell>
        <mxCell id="HWwJgieOPMspvH0jEI9B-5" value="FrontEnd" style="whiteSpace=wrap;strokeWidth=2;" vertex="1" parent="1">
          <mxGeometry x="-10" y="235" width="547" height="178" as="geometry" />
        </mxCell>
        <mxCell id="HWwJgieOPMspvH0jEI9B-6" value="Web UI" style="whiteSpace=wrap;strokeWidth=2;" vertex="1" parent="1">
          <mxGeometry x="66" y="310" width="111" height="48" as="geometry" />
        </mxCell>
        <mxCell id="HWwJgieOPMspvH0jEI9B-7" value="API Gateway" style="whiteSpace=wrap;strokeWidth=2;" vertex="1" parent="1">
          <mxGeometry x="319" y="270" width="152" height="48" as="geometry" />
        </mxCell>
        <mxCell id="HWwJgieOPMspvH0jEI9B-8" value="S3 Bucket - Raw Data" style="whiteSpace=wrap;strokeWidth=2;" vertex="1" parent="1">
          <mxGeometry x="15" y="121" width="213" height="48" as="geometry" />
        </mxCell>
        <mxCell id="HWwJgieOPMspvH0jEI9B-9" value="Lambda - Data Ingestion" style="whiteSpace=wrap;strokeWidth=2;" vertex="1" parent="1">
          <mxGeometry x="278" y="121" width="234" height="48" as="geometry" />
        </mxCell>
        <mxCell id="HWwJgieOPMspvH0jEI9B-10" value="Amazon Kinesis" style="whiteSpace=wrap;strokeWidth=2;" vertex="1" parent="1">
          <mxGeometry x="635" y="121" width="170" height="48" as="geometry" />
        </mxCell>
        <mxCell id="HWwJgieOPMspvH0jEI9B-11" value="DynamoDB" style="whiteSpace=wrap;strokeWidth=2;" vertex="1" parent="1">
          <mxGeometry x="902" y="131" width="136" height="48" as="geometry" />
        </mxCell>
        <mxCell id="HWwJgieOPMspvH0jEI9B-12" value="Lambda - Data Processing" style="whiteSpace=wrap;strokeWidth=2;" vertex="1" parent="1">
          <mxGeometry x="1138" y="131" width="243" height="48" as="geometry" />
        </mxCell>
        <mxCell id="HWwJgieOPMspvH0jEI9B-13" value="S3 Bucket - Processed Data" style="whiteSpace=wrap;strokeWidth=2;" vertex="1" parent="1">
          <mxGeometry x="1431" y="131" width="253" height="48" as="geometry" />
        </mxCell>
        <mxCell id="HWwJgieOPMspvH0jEI9B-14" value="Amazon Athena" style="whiteSpace=wrap;strokeWidth=2;" vertex="1" parent="1">
          <mxGeometry x="1769" y="290" width="171" height="48" as="geometry" />
        </mxCell>
        <mxCell id="HWwJgieOPMspvH0jEI9B-15" value="Amazon QuickSight" style="whiteSpace=wrap;strokeWidth=2;" vertex="1" parent="1">
          <mxGeometry x="2024" y="319" width="197" height="48" as="geometry" />
        </mxCell>
        <mxCell id="HWwJgieOPMspvH0jEI9B-16" value="Amazon Bedrock - Generative AI" style="whiteSpace=wrap;strokeWidth=2;" vertex="1" parent="1">
          <mxGeometry x="1759" y="-25" width="190" height="66" as="geometry" />
        </mxCell>
        <mxCell id="HWwJgieOPMspvH0jEI9B-17" value="Lambda - API Handler" style="whiteSpace=wrap;strokeWidth=2;" vertex="1" parent="1">
          <mxGeometry x="612" y="262" width="215" height="48" as="geometry" />
        </mxCell>
        <mxCell id="HWwJgieOPMspvH0jEI9B-18" value="" style="curved=1;startArrow=none;endArrow=block;exitX=1;exitY=0.15;entryX=0;entryY=0.5;rounded=0;" edge="1" parent="1" source="HWwJgieOPMspvH0jEI9B-6" target="HWwJgieOPMspvH0jEI9B-7">
          <mxGeometry relative="1" as="geometry">
            <Array as="points">
              <mxPoint x="253" y="294" />
            </Array>
          </mxGeometry>
        </mxCell>
        <mxCell id="HWwJgieOPMspvH0jEI9B-19" value="" style="curved=1;startArrow=none;endArrow=block;exitX=1;exitY=0.5;entryX=0;entryY=0.5;rounded=0;" edge="1" parent="1" source="HWwJgieOPMspvH0jEI9B-8" target="HWwJgieOPMspvH0jEI9B-9">
          <mxGeometry relative="1" as="geometry">
            <Array as="points" />
          </mxGeometry>
        </mxCell>
        <mxCell id="HWwJgieOPMspvH0jEI9B-20" value="" style="curved=1;startArrow=none;endArrow=block;exitX=1;exitY=0.5;entryX=0;entryY=0.5;rounded=0;" edge="1" parent="1" source="HWwJgieOPMspvH0jEI9B-9" target="HWwJgieOPMspvH0jEI9B-10">
          <mxGeometry relative="1" as="geometry">
            <Array as="points" />
          </mxGeometry>
        </mxCell>
        <mxCell id="HWwJgieOPMspvH0jEI9B-21" value="" style="curved=1;startArrow=none;endArrow=block;exitX=1;exitY=0.5;entryX=0;entryY=0.35;rounded=0;" edge="1" parent="1" source="HWwJgieOPMspvH0jEI9B-10" target="HWwJgieOPMspvH0jEI9B-11">
          <mxGeometry relative="1" as="geometry">
            <Array as="points">
              <mxPoint x="877" y="145" />
            </Array>
          </mxGeometry>
        </mxCell>
        <mxCell id="HWwJgieOPMspvH0jEI9B-22" value="" style="curved=1;startArrow=none;endArrow=block;exitX=1;exitY=0.5;entryX=0;entryY=0.5;rounded=0;" edge="1" parent="1" source="HWwJgieOPMspvH0jEI9B-11" target="HWwJgieOPMspvH0jEI9B-12">
          <mxGeometry relative="1" as="geometry">
            <Array as="points" />
          </mxGeometry>
        </mxCell>
        <mxCell id="HWwJgieOPMspvH0jEI9B-23" value="" style="curved=1;startArrow=none;endArrow=block;exitX=1;exitY=0.5;entryX=0;entryY=0.5;rounded=0;" edge="1" parent="1" source="HWwJgieOPMspvH0jEI9B-12" target="HWwJgieOPMspvH0jEI9B-13">
          <mxGeometry relative="1" as="geometry">
            <Array as="points" />
          </mxGeometry>
        </mxCell>
        <mxCell id="HWwJgieOPMspvH0jEI9B-24" value="" style="curved=1;startArrow=none;endArrow=block;exitX=0.68;exitY=1.01;entryX=0.29;entryY=0;rounded=0;" edge="1" parent="1" source="HWwJgieOPMspvH0jEI9B-13" target="HWwJgieOPMspvH0jEI9B-14">
          <mxGeometry relative="1" as="geometry">
            <Array as="points">
              <mxPoint x="1709" y="234" />
              <mxPoint x="1734" y="234" />
            </Array>
          </mxGeometry>
        </mxCell>
        <mxCell id="HWwJgieOPMspvH0jEI9B-25" value="" style="curved=1;startArrow=none;endArrow=block;exitX=1;exitY=0.5;entryX=0;entryY=0.02;rounded=0;" edge="1" parent="1" source="HWwJgieOPMspvH0jEI9B-14" target="HWwJgieOPMspvH0jEI9B-15">
          <mxGeometry relative="1" as="geometry">
            <Array as="points">
              <mxPoint x="1999" y="314" />
            </Array>
          </mxGeometry>
        </mxCell>
        <mxCell id="HWwJgieOPMspvH0jEI9B-26" value="" style="curved=1;startArrow=none;endArrow=block;exitX=1;exitY=0.16;entryX=0.34;entryY=1;rounded=0;" edge="1" parent="1" source="HWwJgieOPMspvH0jEI9B-13" target="HWwJgieOPMspvH0jEI9B-16">
          <mxGeometry relative="1" as="geometry">
            <Array as="points">
              <mxPoint x="1709" y="136" />
              <mxPoint x="1734" y="136" />
            </Array>
          </mxGeometry>
        </mxCell>
        <mxCell id="HWwJgieOPMspvH0jEI9B-27" value="" style="curved=1;startArrow=none;endArrow=block;exitX=1;exitY=0.5;entryX=0;entryY=0.5;rounded=0;" edge="1" parent="1" source="HWwJgieOPMspvH0jEI9B-7" target="HWwJgieOPMspvH0jEI9B-17">
          <mxGeometry relative="1" as="geometry">
            <Array as="points" />
          </mxGeometry>
        </mxCell>
        <mxCell id="HWwJgieOPMspvH0jEI9B-28" value="" style="curved=1;startArrow=none;endArrow=block;exitX=1;exitY=0.51;entryX=0;entryY=0.8;rounded=0;" edge="1" parent="1" source="HWwJgieOPMspvH0jEI9B-17" target="HWwJgieOPMspvH0jEI9B-11">
          <mxGeometry relative="1" as="geometry">
            <Array as="points">
              <mxPoint x="852" y="294" />
              <mxPoint x="877" y="175" />
            </Array>
          </mxGeometry>
        </mxCell>
        <mxCell id="HWwJgieOPMspvH0jEI9B-29" value="" style="curved=1;startArrow=none;endArrow=block;exitX=1;exitY=1;entryX=0;entryY=0.65;rounded=0;" edge="1" parent="1" source="HWwJgieOPMspvH0jEI9B-17" target="HWwJgieOPMspvH0jEI9B-14">
          <mxGeometry relative="1" as="geometry">
            <Array as="points">
              <mxPoint x="852" y="324" />
              <mxPoint x="1734" y="324" />
            </Array>
          </mxGeometry>
        </mxCell>
        <mxCell id="HWwJgieOPMspvH0jEI9B-30" value="" style="curved=1;startArrow=none;endArrow=block;exitX=1;exitY=0.17;entryX=0;entryY=0.5;rounded=0;" edge="1" parent="1" source="HWwJgieOPMspvH0jEI9B-17" target="HWwJgieOPMspvH0jEI9B-16">
          <mxGeometry relative="1" as="geometry">
            <Array as="points">
              <mxPoint x="852" y="274" />
              <mxPoint x="877" y="8" />
            </Array>
          </mxGeometry>
        </mxCell>
        <mxCell id="HWwJgieOPMspvH0jEI9B-31" value="" style="curved=1;dashed=1;dashPattern=2 3;startArrow=none;endArrow=block;exitX=1;exitY=0.85;entryX=0;entryY=1.01;rounded=0;" edge="1" parent="1" source="HWwJgieOPMspvH0jEI9B-6" target="HWwJgieOPMspvH0jEI9B-15">
          <mxGeometry relative="1" as="geometry">
            <Array as="points">
              <mxPoint x="253" y="374" />
              <mxPoint x="1999" y="374" />
            </Array>
          </mxGeometry>
        </mxCell>
      </root>
    </mxGraphModel>
  </diagram>
</mxfile>
